<?xml version="1.0" standalone="no"?>
<!DOCTYPE svg PUBLIC "-//W3C//DTD SVG 20010904//EN"
 "http://www.w3.org/TR/2001/REC-SVG-20010904/DTD/svg10.dtd">
<svg version="1.0" xmlns="http://www.w3.org/2000/svg"
 width="3333.000000pt" height="3333.000000pt" viewBox="0 0 3333.000000 3333.000000"
 preserveAspectRatio="xMidYMid meet">
<metadata>
Created by potrace 1.16, written by Peter Selinger 2001-2019
</metadata>
<g transform="translate(0.000000,3333.000000) scale(0.100000,-0.100000)"
fill="#000000" stroke="none">
<path d="M0 16665 l0 -16665 16665 0 16665 0 0 16665 0 16665 -16665 0 -16665
0 0 -16665z m16933 7515 c373 -10 584 -23 598 -37 10 -10 -16 -264 -87 -828
-30 -242 -90 -732 -134 -1090 -44 -357 -82 -664 -85 -681 -5 -27 -13 -35 -73
-59 -316 -133 -810 -393 -1068 -562 -20 -13 -21 -12 -18 9 2 13 27 192 54 398
71 526 122 887 186 1309 30 200 54 367 52 371 -6 16 -186 -209 -368 -459 -725
-996 -866 -1204 -1512 -2216 -306 -478 -736 -1151 -955 -1495 -220 -344 -397
-628 -394 -631 7 -7 2580 7 2587 14 3 2 25 165 50 362 l44 358 47 56 c26 31
119 128 207 216 237 236 476 423 794 622 111 70 168 100 170 91 1 -8 -18 -203
-43 -433 -273 -2506 -380 -4241 -291 -4708 21 -108 108 -420 155 -557 140
-407 299 -622 561 -759 134 -70 229 -95 360 -95 92 1 117 5 202 33 139 47 243
119 431 296 189 177 273 246 347 283 49 24 66 27 155 27 113 0 159 -15 247
-83 148 -112 216 -358 146 -530 -57 -140 -140 -245 -269 -341 -327 -243 -861
-326 -1326 -205 -274 71 -588 228 -850 426 -129 98 -346 308 -450 438 -344
427 -592 981 -693 1550 -60 343 -79 802 -62 1495 7 259 17 553 23 654 6 100 8
185 6 188 -3 2 -668 1 -1478 -4 l-1474 -8 -154 -230 c-778 -1164 -1444 -2060
-1831 -2468 -321 -337 -856 -655 -1302 -772 -208 -54 -326 -69 -543 -69 -337
0 -600 60 -813 186 -73 42 -217 187 -260 259 -45 76 -71 157 -84 253 -26 203
54 371 210 444 52 25 67 27 177 26 133 -1 186 -13 595 -134 365 -108 520 -129
716 -95 380 67 736 302 1249 826 507 519 882 1055 1947 2788 1449 2356 2547
3939 3457 4986 34 39 61 74 61 79 0 11 -1063 1 -1455 -14 -892 -34 -1199 -86
-1575 -266 -304 -146 -528 -360 -667 -639 -91 -181 -126 -326 -127 -520 0
-162 18 -235 110 -448 188 -431 219 -551 178 -687 -21 -69 -50 -114 -113 -173
-90 -85 -197 -114 -344 -96 -339 42 -574 304 -652 725 -22 118 -31 459 -16
590 26 216 80 413 171 617 250 561 740 964 1453 1196 384 125 803 197 1297
224 145 8 2199 5 2523 -3z m3477 -2551 c804 -50 1533 -265 2060 -606 363 -236
630 -574 750 -948 70 -222 95 -418 87 -698 -5 -210 -25 -349 -78 -547 -165
-621 -664 -1273 -1309 -1709 -493 -334 -1126 -572 -1852 -695 l-37 -7 147
-297 c326 -658 392 -823 782 -1972 402 -1186 606 -1702 945 -2385 345 -698
632 -1135 975 -1488 218 -225 400 -363 620 -473 219 -110 419 -162 656 -171
480 -19 807 145 997 497 37 70 74 167 132 350 103 324 185 448 350 526 191 91
412 51 550 -98 110 -118 147 -244 126 -428 -29 -254 -158 -496 -385 -724 -326
-327 -703 -515 -1191 -591 -142 -23 -567 -32 -732 -16 -517 50 -1009 220
-1458 504 -668 422 -1354 1217 -1900 2202 -169 305 -384 754 -521 1091 -181
444 -414 1155 -785 2394 -110 366 -229 758 -266 872 l-66 207 -66 8 c-86 10
-300 7 -332 -6 -23 -8 -30 -27 -78 -218 -133 -529 -592 -2340 -597 -2355 -9
-31 -93 -62 -169 -63 -61 0 -80 5 -148 37 -221 106 -342 330 -491 910 -42 162
-56 309 -56 580 l0 188 369 1478 c439 1753 500 2014 536 2269 22 151 7 212
-69 291 -58 60 -133 83 -302 91 l-132 6 44 160 c24 88 48 176 53 196 l11 36
167 6 c468 18 1103 118 1697 268 65 16 121 28 123 25 3 -2 -18 -82 -46 -178
-87 -301 -134 -482 -482 -1847 -187 -734 -336 -1337 -332 -1342 15 -14 366
-68 520 -79 311 -23 663 23 968 126 369 124 661 310 965 614 232 231 366 414
490 665 297 602 320 1311 58 1805 -81 153 -144 237 -285 382 -318 326 -712
510 -1278 595 -171 26 -791 26 -1010 0 -837 -98 -1583 -351 -2345 -795 -741
-432 -1277 -950 -1662 -1606 l-28 -46 -295 0 c-162 0 -295 3 -295 6 0 4 23 50
52 103 168 315 311 532 512 781 127 157 451 484 616 620 806 669 1852 1167
2900 1380 598 122 1172 159 1820 119z m-5755 -4662 c0 -254 10 -327 65 -509
82 -266 215 -485 434 -715 l97 -102 14 -137 c29 -274 100 -606 180 -845 19
-56 32 -105 30 -110 -11 -17 -122 -31 -201 -26 -332 23 -614 251 -857 692
-245 445 -364 1013 -342 1630 4 110 10 232 13 270 l7 70 185 5 c102 3 228 7
280 8 l95 2 0 -233z m2010 -4052 c236 -174 613 -364 853 -431 34 -9 62 -22 62
-28 0 -6 -25 -108 -55 -226 -29 -118 -52 -216 -51 -218 7 -6 304 -41 451 -53
173 -13 342 -7 562 21 145 19 496 85 516 97 5 3 7 -3 4 -13 -3 -11 -22 -103
-43 -205 l-36 -186 -167 -31 c-355 -68 -430 -76 -746 -76 -299 -1 -383 4 -935
54 -479 44 -588 50 -876 50 -440 0 -819 -41 -1336 -144 -115 -23 -208 -41
-208 -41 1 0 29 103 63 229 l62 229 160 44 c442 120 805 259 966 370 182 125
386 411 502 701 l17 43 78 -64 c42 -35 113 -90 157 -122z"/>
</g>
</svg>
