<?xml version="1.0" encoding="UTF-8"?>
<svg xmlns="http://www.w3.org/2000/svg" xmlns:xlink="http://www.w3.org/1999/xlink" viewBox="0 0 100 100" width="100px" height="100px">
<g id="surface16394565">
<path style=" stroke:none;fill-rule:nonzero;fill:rgb(37.64706%,74.509805%,57.254905%);fill-opacity:1;" d="M 81 76.667969 L 81 23.332031 C 81 20.386719 78.613281 18 75.667969 18 L 22.332031 18 C 19.386719 18 17 20.386719 17 23.332031 L 17 76.664062 C 17 79.613281 19.386719 82 22.332031 82 L 75.664062 82 C 78.613281 82 81 79.613281 81 76.667969 Z M 81 76.667969 "/>
<path style=" stroke:none;fill-rule:nonzero;fill:rgb(47.058824%,63.529414%,82.352942%);fill-opacity:1;" d="M 22.769531 82 L 75.230469 82 L 49 55.769531 Z M 22.769531 82 "/>
<path style=" stroke:none;fill-rule:nonzero;fill:rgb(80.784315%,80.000001%,74.509805%);fill-opacity:1;" d="M 81 76.230469 L 81 23.769531 L 54.769531 50 Z M 81 76.230469 "/>
<path style=" stroke:none;fill-rule:nonzero;fill:rgb(97.647059%,90.196079%,36.078432%);fill-opacity:1;" d="M 75.664062 17.5 L 75.023438 17.5 L 16.5 76.023438 L 16.5 76.664062 C 16.5 79.882812 19.117188 82.5 22.332031 82.5 L 22.976562 82.5 L 81.5 23.976562 L 81.5 23.332031 C 81.5 20.117188 78.882812 17.5 75.664062 17.5 Z M 75.664062 17.5 "/>
<path style=" stroke:none;fill-rule:nonzero;fill:rgb(12.156863%,12.941177%,16.862746%);fill-opacity:1;" d="M 22.976562 82.5 L 22.332031 82.5 C 19.117188 82.5 16.5 79.882812 16.5 76.664062 L 16.5 76.023438 L 75.023438 17.5 L 75.664062 17.5 C 78.882812 17.5 81.5 20.117188 81.5 23.332031 L 81.5 23.976562 Z M 17.5 76.4375 L 17.5 76.667969 C 17.5 79.332031 19.667969 81.5 22.332031 81.5 L 22.5625 81.5 L 80.5 23.5625 L 80.5 23.332031 C 80.5 20.667969 78.332031 18.5 75.667969 18.5 L 75.4375 18.5 Z M 17.5 76.4375 "/>
<path style=" stroke:none;fill-rule:nonzero;fill:rgb(100%,100%,100%);fill-opacity:1;" d="M 55.425781 49.949219 L 48.949219 56.425781 L 75.023438 82.5 L 75.664062 82.5 C 78.882812 82.5 81.5 79.882812 81.5 76.664062 L 81.5 76.023438 Z M 55.425781 49.949219 "/>
<path style=" stroke:none;fill-rule:nonzero;fill:rgb(12.156863%,12.941177%,16.862746%);fill-opacity:1;" d="M 75.667969 83 L 22.332031 83 C 18.839844 83 16 80.160156 16 76.667969 L 16 23.332031 C 16 19.839844 18.839844 17 22.332031 17 L 75.664062 17 C 79.160156 17 82 19.839844 82 23.332031 L 82 76.667969 C 82 80.160156 79.160156 83 75.667969 83 Z M 22.332031 19 C 19.945312 19 18 20.941406 18 23.332031 L 18 76.667969 C 18 79.058594 19.945312 81 22.332031 81 L 75.664062 81 C 78.054688 81 80 79.058594 80 76.667969 L 80 23.332031 C 80 20.941406 78.054688 19 75.667969 19 Z M 22.332031 19 "/>
<path style=" stroke:none;fill-rule:nonzero;fill:rgb(94.509804%,35.686275%,42.352942%);fill-opacity:1;" d="M 70.5 67.5 C 71.050781 67.5 71.5 67.050781 71.5 66.5 C 71.5 64 73 57.5 77.375 50.5 C 81.089844 44.554688 88.5 38 88.5 29.5 C 88.5 19.558594 80.441406 11.5 70.5 11.5 C 60.558594 11.5 52.5 19.558594 52.5 29.5 C 52.5 38 59.910156 44.554688 63.625 50.5 C 68 57.5 69.5 64 69.5 66.5 C 69.5 67.050781 69.949219 67.5 70.5 67.5 Z M 70.5 67.5 "/>
<path style=" stroke:none;fill-rule:nonzero;fill:rgb(69.01961%,45.490196%,32.941177%);fill-opacity:1;" d="M 77.5 29.5 C 77.5 33.367188 74.367188 36.5 70.5 36.5 C 66.632812 36.5 63.5 33.367188 63.5 29.5 C 63.5 25.632812 66.632812 22.5 70.5 22.5 C 74.367188 22.5 77.5 25.632812 77.5 29.5 Z M 77.5 29.5 "/>
<path style=" stroke:none;fill-rule:nonzero;fill:rgb(12.156863%,12.941177%,16.862746%);fill-opacity:1;" d="M 70.5 68 C 69.671875 68 69 67.328125 69 66.5 C 69 64.003906 67.425781 57.523438 63.199219 50.765625 C 62.226562 49.203125 60.996094 47.605469 59.691406 45.910156 C 56.085938 41.222656 52 35.910156 52 29.5 C 52 19.300781 60.300781 11 70.5 11 C 80.699219 11 89 19.300781 89 29.5 C 89 35.910156 84.914062 41.222656 81.308594 45.910156 C 80.003906 47.605469 78.773438 49.203125 77.800781 50.765625 C 73.574219 57.523438 72 64.003906 72 66.5 C 72 67.328125 71.328125 68 70.5 68 Z M 70.5 12 C 60.851562 12 53 19.851562 53 29.5 C 53 35.570312 56.976562 40.738281 60.484375 45.300781 C 61.804688 47.015625 63.046875 48.636719 64.050781 50.234375 C 68.414062 57.222656 70 63.789062 70 66.5 C 70 66.773438 70.222656 67 70.5 67 C 70.777344 67 71 66.773438 71 66.5 C 71 63.789062 72.585938 57.222656 76.949219 50.234375 C 77.949219 48.632812 79.195312 47.015625 80.515625 45.300781 C 84.023438 40.738281 88 35.570312 88 29.5 C 88 19.851562 80.148438 12 70.5 12 Z M 70.5 12 "/>
<path style=" stroke:none;fill-rule:nonzero;fill:rgb(12.156863%,12.941177%,16.862746%);fill-opacity:1;" d="M 70.5 37 C 66.363281 37 63 33.636719 63 29.5 C 63 25.363281 66.363281 22 70.5 22 C 74.636719 22 78 25.363281 78 29.5 C 78 33.636719 74.636719 37 70.5 37 Z M 70.5 23 C 66.914062 23 64 25.914062 64 29.5 C 64 33.085938 66.914062 36 70.5 36 C 74.085938 36 77 33.085938 77 29.5 C 77 25.914062 74.085938 23 70.5 23 Z M 70.5 23 "/>
<path style=" stroke:none;fill-rule:nonzero;fill:rgb(12.156863%,12.941177%,16.862746%);fill-opacity:1;" d="M 73.5 49.6875 C 73.414062 49.6875 73.324219 49.664062 73.242188 49.617188 C 73.007812 49.476562 72.929688 49.167969 73.070312 48.929688 L 73.226562 48.664062 C 73.335938 48.480469 73.445312 48.296875 73.558594 48.113281 C 74.660156 46.351562 75.960938 44.660156 77.339844 42.871094 C 80.617188 38.609375 84 34.210938 84 29.5 C 84 26.335938 82.871094 23.257812 80.816406 20.820312 C 80.636719 20.609375 80.664062 20.296875 80.875 20.117188 C 81.085938 19.9375 81.402344 19.96875 81.582031 20.179688 C 83.785156 22.789062 85 26.101562 85 29.5 C 85 34.550781 81.511719 39.085938 78.136719 43.472656 C 76.769531 45.25 75.484375 46.921875 74.40625 48.644531 C 74.296875 48.820312 74.195312 48.996094 74.089844 49.171875 L 73.929688 49.445312 C 73.835938 49.601562 73.667969 49.6875 73.5 49.6875 Z M 73.5 49.6875 "/>
<path style=" stroke:none;fill-rule:nonzero;fill:rgb(12.156863%,12.941177%,16.862746%);fill-opacity:1;" d="M 72.5 16.160156 C 72.476562 16.160156 72.453125 16.15625 72.429688 16.15625 C 71.695312 16.050781 71.085938 16 70.5 16 C 70.222656 16 70 15.777344 70 15.5 C 70 15.222656 70.222656 15 70.5 15 C 71.132812 15 71.792969 15.054688 72.570312 15.164062 C 72.84375 15.203125 73.035156 15.457031 72.996094 15.730469 C 72.960938 15.980469 72.746094 16.160156 72.5 16.160156 Z M 72.5 16.160156 "/>
<path style=" stroke:none;fill-rule:nonzero;fill:rgb(12.156863%,12.941177%,16.862746%);fill-opacity:1;" d="M 78.5 18.523438 C 78.402344 18.523438 78.300781 18.492188 78.214844 18.433594 C 77.03125 17.605469 75.734375 16.980469 74.355469 16.570312 C 74.09375 16.488281 73.941406 16.210938 74.019531 15.945312 C 74.101562 15.679688 74.378906 15.535156 74.644531 15.609375 C 76.121094 16.050781 77.515625 16.726562 78.785156 17.613281 C 79.011719 17.769531 79.066406 18.082031 78.910156 18.308594 C 78.8125 18.449219 78.65625 18.523438 78.5 18.523438 Z M 78.5 18.523438 "/>
<path style=" stroke:none;fill-rule:nonzero;fill:rgb(12.156863%,12.941177%,16.862746%);fill-opacity:1;" d="M 75.664062 82.5 L 75.023438 82.5 L 48.292969 55.769531 L 54.769531 49.292969 L 66.855469 61.378906 C 67.050781 61.574219 67.050781 61.890625 66.855469 62.085938 C 66.660156 62.28125 66.34375 62.28125 66.148438 62.085938 L 54.769531 50.707031 L 49.707031 55.769531 L 75.4375 81.5 L 75.664062 81.5 C 78.328125 81.5 80.496094 79.332031 80.496094 76.664062 L 80.496094 76.4375 L 73.144531 69.085938 C 72.949219 68.890625 72.949219 68.570312 73.144531 68.378906 C 73.339844 68.183594 73.65625 68.183594 73.851562 68.378906 L 81.496094 76.023438 L 81.496094 76.664062 C 81.5 79.882812 78.882812 82.5 75.664062 82.5 Z M 75.664062 82.5 "/>
<path style=" stroke:none;fill-rule:nonzero;fill:rgb(100%,100%,100%);fill-opacity:1;" d="M 41.367188 31.5 L 32.5 31.5 L 32.5 35.5 L 36.894531 35.5 C 35.984375 37.28125 34.136719 38.5 32 38.5 C 28.960938 38.5 26.5 36.039062 26.5 33 C 26.5 29.960938 28.960938 27.5 32 27.5 C 33.414062 27.5 34.699219 28.039062 35.671875 28.914062 L 38.5 26.085938 C 36.800781 24.484375 34.519531 23.5 32 23.5 C 26.753906 23.5 22.5 27.753906 22.5 33 C 22.5 38.246094 26.753906 42.5 32 42.5 C 36.378906 42.5 40.058594 39.53125 41.15625 35.5 C 41.371094 34.703125 41.5 33.867188 41.5 33 C 41.5 32.488281 41.445312 31.988281 41.367188 31.5 Z M 41.367188 31.5 "/>
<path style=" stroke:none;fill-rule:nonzero;fill:rgb(12.156863%,12.941177%,16.862746%);fill-opacity:1;" d="M 32 43 C 26.484375 43 22 38.515625 22 33 C 22 27.484375 26.484375 23 32 23 C 34.546875 23 36.976562 23.964844 38.84375 25.722656 C 38.941406 25.8125 39 25.941406 39 26.078125 C 39.003906 26.214844 38.949219 26.34375 38.855469 26.4375 L 36.027344 29.265625 C 35.839844 29.453125 35.535156 29.460938 35.339844 29.285156 C 34.414062 28.457031 33.230469 28 32 28 C 29.242188 28 27 30.242188 27 33 C 27 35.757812 29.242188 38 32 38 C 33.59375 38 35.0625 37.25 35.996094 36 L 32.5 36 C 32.222656 36 32 35.777344 32 35.5 L 32 31.5 C 32 31.222656 32.222656 31 32.5 31 L 41.367188 31 C 41.613281 31 41.824219 31.179688 41.863281 31.421875 C 41.953125 31.996094 42 32.511719 42 33 C 42 33.867188 41.878906 34.753906 41.640625 35.632812 C 40.457031 39.96875 36.492188 43 32 43 Z M 32 24 C 27.039062 24 23 28.035156 23 33 C 23 37.964844 27.039062 42 32 42 C 36.042969 42 39.609375 39.273438 40.675781 35.367188 C 40.890625 34.574219 41 33.777344 41 33 C 41 32.6875 40.980469 32.355469 40.933594 32 L 33 32 L 33 35 L 36.894531 35 C 37.070312 35 37.230469 35.089844 37.320312 35.238281 C 37.414062 35.386719 37.421875 35.574219 37.339844 35.726562 C 36.308594 37.746094 34.261719 39 32 39 C 28.691406 39 26 36.308594 26 33 C 26 29.691406 28.691406 27 32 27 C 33.320312 27 34.597656 27.4375 35.640625 28.238281 L 37.773438 26.105469 C 36.148438 24.742188 34.121094 24 32 24 Z M 32 24 "/>
</g>
</svg>
